<svg width="154" height="44" viewBox="0 0 154 44" fill="none" xmlns="http://www.w3.org/2000/svg" class="logo-svg logo" alt="logo" data-v-ce4cb7b3=""><path d="M29.1706 1.53369H0V8.28748H12.4059V43.4934H19.7824V8.28748H32.1883V4.59924C32.1883 2.87487 30.8471 1.53369 29.1706 1.53369Z" fill="black"></path><path d="M35.8286 43.4934H43.1572V4.5992C43.1572 2.92272 41.816 1.58154 40.1395 1.58154H35.8765V43.4934H35.8286Z" fill="black"></path><path d="M79.8001 43.4934V36.5959H57.1438V25.0522H75.8245V18.2505H57.1438V8.43113H79.8001V4.5992C79.8001 2.92272 78.4589 1.58154 76.7825 1.58154H49.6715V43.5413H79.8001V43.4934Z" fill="black"></path><path d="M90.3859 1.53369H84.2548V43.4934H91.3438V12.8379C91.3438 12.79 91.3917 12.79 91.4396 12.79L109.737 42.0564C110.264 42.9186 111.27 43.4934 112.276 43.4934H118.503V4.59924C118.503 2.92277 117.162 1.58159 115.485 1.58159H111.27V31.0875C111.27 31.1354 111.222 31.1354 111.174 31.1354L92.8766 2.92277C92.3497 2.06058 91.3917 1.53369 90.3859 1.53369Z" fill="black"></path><path d="M153.996 31.5187C153.996 30.0817 154.188 27.6867 151.936 24.8128C150.26 22.7052 146.619 20.7414 143.219 19.5439C139.435 18.2027 136.561 17.6279 133.926 16.1909C130.861 14.5624 130.861 12.2632 131.723 10.4909C132.01 9.86824 133.543 7.37748 138.429 7.37748C141.83 7.37748 144.991 9.72454 145.614 10.2035C146.763 11.1136 148.44 11.0657 149.541 10.0119C149.541 10.0119 152.319 7.42538 152.463 7.28168C151.84 6.61109 150.978 5.36571 148.44 3.73713C146.955 2.77915 143.075 0.719482 138.333 0.719482C132.106 0.719482 128.849 2.92285 127.556 3.92874C125.256 5.79681 123.58 8.47916 123.58 12.2153C123.58 17.1489 126.693 20.3103 131.244 22.322C133.782 23.5674 139.099 25.1002 140.44 25.5313C141.877 26.0582 146.284 27.3994 146.284 30.9918C146.284 34.4405 143.075 37.1708 138.189 37.1708C134.118 37.1229 130.142 34.1531 128.897 33.0515C127.747 32.0935 126.023 32.1414 124.921 33.1473C124.921 33.1473 122.287 35.5901 121.903 35.8775C122.909 37.0271 124.107 38.3683 125.735 39.6137C127.747 41.0985 130.238 42.5355 133.735 43.3977C137.614 44.3557 141.782 43.8288 144.368 42.9666C146.38 42.4397 153.517 39.6615 153.996 31.5187Z" fill="black"></path></svg>